<svg xmlns="http://www.w3.org/2000/svg"
     viewBox="0 0 1200 280" width="100%"
     preserveAspectRatio="xMidYMid slice"
     role="img" aria-labelledby="sv-title sv-desc">
  <title id="sv-title">harborglowvintage-oss highsignal_64 banner</title>
  <desc id="sv-desc">Animated pixel-art oscilloscope with 20-color GNOME-style
  spark traces scrolling right to left, P=120px period.</desc>
  <style>.wave-scroll {
    animation: wave-scroll 4.8s linear infinite;
    transform: translateZ(0);
    backface-visibility: hidden;
  }
  .wave-scroll polyline {
    vector-effect: non-scaling-stroke;
    shape-rendering: geometricPrecision;
    paint-order: stroke;
  }
  .crt-fuzz {
    animation: crt-fuzz 30s ease-in-out infinite;
  }
  @keyframes wave-scroll {
    from { transform: translateX(0px);   }
    to   { transform: translateX(-120px); }
  }
  @keyframes crt-fuzz {
    0%, 100% { opacity: 0.25; }
    47%, 53% { opacity: 0.75; }
    42%, 58% { opacity: 0.35; }
  }
  @keyframes mx-drop {   from { transform: translateY(0px); } to { transform: translateY(280px); } }
  @media (prefers-reduced-motion: reduce) { .wave-scroll { animation: none; } }</style>
  <defs>
    <linearGradient id="vignette" x1="0" y1="0" x2="0" y2="1">
      <stop offset="0%"   stop-color="#0b1220" stop-opacity="0.6"/>
      <stop offset="45%"  stop-color="#0b1220" stop-opacity="0"/>
      <stop offset="100%" stop-color="#0b1220" stop-opacity="0.75"/>
    </linearGradient>
    <linearGradient id="sideFade" x1="0" y1="0" x2="1" y2="0">
      <stop offset="0%"   stop-color="#0b1220" stop-opacity="0.9"/>
      <stop offset="7%"   stop-color="#0b1220" stop-opacity="0"/>
      <stop offset="93%"  stop-color="#0b1220" stop-opacity="0"/>
      <stop offset="100%" stop-color="#0b1220" stop-opacity="0.9"/>
    </linearGradient>
    <pattern id="scanlines" width="1" height="3" patternUnits="userSpaceOnUse">
      <rect width="1" height="1" fill="#ffffff" fill-opacity="0.035"/>
    </pattern>
    <linearGradient id="mxDropGrad" x1="0" y1="0" x2="0" y2="1">
      <stop offset="0%"   stop-color="#ffffff" stop-opacity="0.9"/>
      <stop offset="25%"  stop-color="#ffd580" stop-opacity="0.7"/>
      <stop offset="60%"  stop-color="#ff8c00" stop-opacity="0.3"/>
      <stop offset="100%" stop-color="#7a3200" stop-opacity="0.0"/>
    </linearGradient>
    <linearGradient id="mxDropGrad2" x1="0" y1="0" x2="0" y2="1">
      <stop offset="0%"   stop-color="#fff5e0" stop-opacity="0.8"/>
      <stop offset="30%"  stop-color="#ffb347" stop-opacity="0.5"/>
      <stop offset="70%"  stop-color="#cc5500" stop-opacity="0.2"/>
      <stop offset="100%" stop-color="#3a1000" stop-opacity="0.0"/>
    </linearGradient>
    <filter id="bevelGlow" x="-10%" y="-10%" width="120%" height="120%">
      <feGaussianBlur stdDeviation="3.5" result="b"/>
      <feMerge><feMergeNode in="b"/><feMergeNode in="SourceGraphic"/></feMerge>
    </filter>
    <pattern id="grid" width="8" height="8" patternUnits="userSpaceOnUse">
      <path d="M8 0H0V8" fill="none" stroke="#162033" stroke-width="0.8"/>
    </pattern>
  </defs>
  <rect width="1200" height="280" fill="#0b1220"/>
  <rect width="1200" height="280" fill="url(#grid)" opacity="0.6"/>
  <rect x="0" y="149" width="1" height="3" fill="#1e3550" opacity="0.8"/><rect x="40" y="149" width="1" height="3" fill="#1e3550" opacity="0.8"/><rect x="80" y="149" width="1" height="3" fill="#1e3550" opacity="0.8"/><rect x="120" y="149" width="1" height="3" fill="#1e3550" opacity="0.8"/><rect x="160" y="149" width="1" height="3" fill="#1e3550" opacity="0.8"/><rect x="200" y="149" width="1" height="3" fill="#1e3550" opacity="0.8"/><rect x="240" y="149" width="1" height="3" fill="#1e3550" opacity="0.8"/><rect x="280" y="149" width="1" height="3" fill="#1e3550" opacity="0.8"/><rect x="320" y="149" width="1" height="3" fill="#1e3550" opacity="0.8"/><rect x="360" y="149" width="1" height="3" fill="#1e3550" opacity="0.8"/><rect x="400" y="149" width="1" height="3" fill="#1e3550" opacity="0.8"/><rect x="440" y="149" width="1" height="3" fill="#1e3550" opacity="0.8"/><rect x="480" y="149" width="1" height="3" fill="#1e3550" opacity="0.8"/><rect x="520" y="149" width="1" height="3" fill="#1e3550" opacity="0.8"/><rect x="560" y="149" width="1" height="3" fill="#1e3550" opacity="0.8"/><rect x="600" y="149" width="1" height="3" fill="#1e3550" opacity="0.8"/><rect x="640" y="149" width="1" height="3" fill="#1e3550" opacity="0.8"/><rect x="680" y="149" width="1" height="3" fill="#1e3550" opacity="0.8"/><rect x="720" y="149" width="1" height="3" fill="#1e3550" opacity="0.8"/><rect x="760" y="149" width="1" height="3" fill="#1e3550" opacity="0.8"/><rect x="800" y="149" width="1" height="3" fill="#1e3550" opacity="0.8"/><rect x="840" y="149" width="1" height="3" fill="#1e3550" opacity="0.8"/><rect x="880" y="149" width="1" height="3" fill="#1e3550" opacity="0.8"/><rect x="920" y="149" width="1" height="3" fill="#1e3550" opacity="0.8"/><rect x="960" y="149" width="1" height="3" fill="#1e3550" opacity="0.8"/><rect x="1000" y="149" width="1" height="3" fill="#1e3550" opacity="0.8"/><rect x="1040" y="149" width="1" height="3" fill="#1e3550" opacity="0.8"/><rect x="1080" y="149" width="1" height="3" fill="#1e3550" opacity="0.8"/><rect x="1120" y="149" width="1" height="3" fill="#1e3550" opacity="0.8"/><rect x="1160" y="149" width="1" height="3" fill="#1e3550" opacity="0.8"/>
  <g class="layer wave-scroll" opacity="0.92"><polyline points="0.0,245.6 8.0,242.8 16.0,241.3 24.0,245.9 32.0,246.1 40.0,246.2 48.0,247.2 56.0,246.7 64.0,245.3 72.0,242.2 80.0,243.6 88.0,245.4 96.0,245.9 104.0,247.0 112.0,247.4 120.0,245.6 128.0,242.8 136.0,241.3 144.0,245.9 152.0,246.1 160.0,246.2 168.0,247.2 176.0,246.7 184.0,245.3 192.0,242.2 200.0,243.6 208.0,245.4 216.0,245.9 224.0,247.0 232.0,247.4 240.0,245.6 248.0,242.8 256.0,241.3 264.0,245.9 272.0,246.1 280.0,246.2 288.0,247.2 296.0,246.7 304.0,245.3 312.0,242.2 320.0,243.6 328.0,245.4 336.0,245.9 344.0,247.0 352.0,247.4 360.0,245.6 368.0,242.8 376.0,241.3 384.0,245.9 392.0,246.1 400.0,246.2 408.0,247.2 416.0,246.7 424.0,245.3 432.0,242.2 440.0,243.6 448.0,245.4 456.0,245.9 464.0,247.0 472.0,247.4 480.0,245.6 488.0,242.8 496.0,241.3 504.0,245.9 512.0,246.1 520.0,246.2 528.0,247.2 536.0,246.7 544.0,245.3 552.0,242.2 560.0,243.6 568.0,245.4 576.0,245.9 584.0,247.0 592.0,247.4 600.0,245.6 608.0,242.8 616.0,241.3 624.0,245.9 632.0,246.1 640.0,246.2 648.0,247.2 656.0,246.7 664.0,245.3 672.0,242.2 680.0,243.6 688.0,245.4 696.0,245.9 704.0,247.0 712.0,247.4 720.0,245.6 728.0,242.8 736.0,241.3 744.0,245.9 752.0,246.1 760.0,246.2 768.0,247.2 776.0,246.7 784.0,245.3 792.0,242.2 800.0,243.6 808.0,245.4 816.0,245.9 824.0,247.0 832.0,247.4 840.0,245.6 848.0,242.8 856.0,241.3 864.0,245.9 872.0,246.1 880.0,246.2 888.0,247.2 896.0,246.7 904.0,245.3 912.0,242.2 920.0,243.6 928.0,245.4 936.0,245.9 944.0,247.0 952.0,247.4 960.0,245.6 968.0,242.8 976.0,241.3 984.0,245.9 992.0,246.1 1000.0,246.2 1008.0,247.2 1016.0,246.7 1024.0,245.3 1032.0,242.2 1040.0,243.6 1048.0,245.4 1056.0,245.9 1064.0,247.0 1072.0,247.4 1080.0,245.6 1088.0,242.8 1096.0,241.3 1104.0,245.9 1112.0,246.1 1120.0,246.2 1128.0,247.2 1136.0,246.7 1144.0,245.3 1152.0,242.2 1160.0,243.6 1168.0,245.4 1176.0,245.9 1184.0,247.0 1192.0,247.4 1200.0,245.6 1208.0,242.8 1216.0,241.3 1224.0,245.9 1232.0,246.1 1240.0,246.2 1248.0,247.2 1256.0,246.7 1264.0,245.3 1272.0,242.2 1280.0,243.6 1288.0,245.4 1296.0,245.9 1304.0,247.0 1312.0,247.4 1320.0,245.6 1328.0,242.8" fill="none" stroke="#ff4b4b" stroke-width="1.55" stroke-linecap="round" stroke-linejoin="round"/></g>
<g class="layer wave-scroll" opacity="0.92"><polyline points="0.0,230.7 8.0,227.0 16.0,236.5 24.0,237.5 32.0,240.1 40.0,231.2 48.0,232.6 56.0,235.3 64.0,235.3 72.0,240.5 80.0,234.9 88.0,229.1 96.0,232.9 104.0,237.2 112.0,241.3 120.0,230.7 128.0,227.0 136.0,236.5 144.0,237.5 152.0,240.1 160.0,231.2 168.0,232.6 176.0,235.3 184.0,235.3 192.0,240.5 200.0,234.9 208.0,229.1 216.0,232.9 224.0,237.2 232.0,241.3 240.0,230.7 248.0,227.0 256.0,236.5 264.0,237.5 272.0,240.1 280.0,231.2 288.0,232.6 296.0,235.3 304.0,235.3 312.0,240.5 320.0,234.9 328.0,229.1 336.0,232.9 344.0,237.2 352.0,241.3 360.0,230.7 368.0,227.0 376.0,236.5 384.0,237.5 392.0,240.1 400.0,231.2 408.0,232.6 416.0,235.3 424.0,235.3 432.0,240.5 440.0,234.9 448.0,229.1 456.0,232.9 464.0,237.2 472.0,241.3 480.0,230.7 488.0,227.0 496.0,236.5 504.0,237.5 512.0,240.1 520.0,231.2 528.0,232.6 536.0,235.3 544.0,235.3 552.0,240.5 560.0,234.9 568.0,229.1 576.0,232.9 584.0,237.2 592.0,241.3 600.0,230.7 608.0,227.0 616.0,236.5 624.0,237.5 632.0,240.1 640.0,231.2 648.0,232.6 656.0,235.3 664.0,235.3 672.0,240.5 680.0,234.9 688.0,229.1 696.0,232.9 704.0,237.2 712.0,241.3 720.0,230.7 728.0,227.0 736.0,236.5 744.0,237.5 752.0,240.1 760.0,231.2 768.0,232.6 776.0,235.3 784.0,235.3 792.0,240.5 800.0,234.9 808.0,229.1 816.0,232.9 824.0,237.2 832.0,241.3 840.0,230.7 848.0,227.0 856.0,236.5 864.0,237.5 872.0,240.1 880.0,231.2 888.0,232.6 896.0,235.3 904.0,235.3 912.0,240.5 920.0,234.9 928.0,229.1 936.0,232.9 944.0,237.2 952.0,241.3 960.0,230.7 968.0,227.0 976.0,236.5 984.0,237.5 992.0,240.1 1000.0,231.2 1008.0,232.6 1016.0,235.3 1024.0,235.3 1032.0,240.5 1040.0,234.9 1048.0,229.1 1056.0,232.9 1064.0,237.2 1072.0,241.3 1080.0,230.7 1088.0,227.0 1096.0,236.5 1104.0,237.5 1112.0,240.1 1120.0,231.2 1128.0,232.6 1136.0,235.3 1144.0,235.3 1152.0,240.5 1160.0,234.9 1168.0,229.1 1176.0,232.9 1184.0,237.2 1192.0,241.3 1200.0,230.7 1208.0,227.0 1216.0,236.5 1224.0,237.5 1232.0,240.1 1240.0,231.2 1248.0,232.6 1256.0,235.3 1264.0,235.3 1272.0,240.5 1280.0,234.9 1288.0,229.1 1296.0,232.9 1304.0,237.2 1312.0,241.3 1320.0,230.7 1328.0,227.0" fill="none" stroke="#ff7f11" stroke-width="1.55" stroke-linecap="round" stroke-linejoin="round"/></g>
<g class="layer wave-scroll" opacity="0.92"><polyline points="0.0,228.8 8.0,233.0 16.0,236.1 24.0,236.2 32.0,231.2 40.0,233.3 48.0,234.9 56.0,235.0 64.0,233.9 72.0,233.7 80.0,234.5 88.0,234.3 96.0,232.0 104.0,234.4 112.0,237.4 120.0,228.8 128.0,233.0 136.0,236.1 144.0,236.2 152.0,231.2 160.0,233.3 168.0,234.9 176.0,235.0 184.0,233.9 192.0,233.7 200.0,234.5 208.0,234.3 216.0,232.0 224.0,234.4 232.0,237.4 240.0,228.8 248.0,233.0 256.0,236.1 264.0,236.2 272.0,231.2 280.0,233.3 288.0,234.9 296.0,235.0 304.0,233.9 312.0,233.7 320.0,234.5 328.0,234.3 336.0,232.0 344.0,234.4 352.0,237.4 360.0,228.8 368.0,233.0 376.0,236.1 384.0,236.2 392.0,231.2 400.0,233.3 408.0,234.9 416.0,235.0 424.0,233.9 432.0,233.7 440.0,234.5 448.0,234.3 456.0,232.0 464.0,234.4 472.0,237.4 480.0,228.8 488.0,233.0 496.0,236.1 504.0,236.2 512.0,231.2 520.0,233.3 528.0,234.9 536.0,235.0 544.0,233.9 552.0,233.7 560.0,234.5 568.0,234.3 576.0,232.0 584.0,234.4 592.0,237.4 600.0,228.8 608.0,233.0 616.0,236.1 624.0,236.2 632.0,231.2 640.0,233.3 648.0,234.9 656.0,235.0 664.0,233.9 672.0,233.7 680.0,234.5 688.0,234.3 696.0,232.0 704.0,234.4 712.0,237.4 720.0,228.8 728.0,233.0 736.0,236.1 744.0,236.2 752.0,231.2 760.0,233.3 768.0,234.9 776.0,235.0 784.0,233.9 792.0,233.7 800.0,234.5 808.0,234.3 816.0,232.0 824.0,234.4 832.0,237.4 840.0,228.8 848.0,233.0 856.0,236.1 864.0,236.2 872.0,231.2 880.0,233.3 888.0,234.9 896.0,235.0 904.0,233.9 912.0,233.7 920.0,234.5 928.0,234.3 936.0,232.0 944.0,234.4 952.0,237.4 960.0,228.8 968.0,233.0 976.0,236.1 984.0,236.2 992.0,231.2 1000.0,233.3 1008.0,234.9 1016.0,235.0 1024.0,233.9 1032.0,233.7 1040.0,234.5 1048.0,234.3 1056.0,232.0 1064.0,234.4 1072.0,237.4 1080.0,228.8 1088.0,233.0 1096.0,236.1 1104.0,236.2 1112.0,231.2 1120.0,233.3 1128.0,234.9 1136.0,235.0 1144.0,233.9 1152.0,233.7 1160.0,234.5 1168.0,234.3 1176.0,232.0 1184.0,234.4 1192.0,237.4 1200.0,228.8 1208.0,233.0 1216.0,236.1 1224.0,236.2 1232.0,231.2 1240.0,233.3 1248.0,234.9 1256.0,235.0 1264.0,233.9 1272.0,233.7 1280.0,234.5 1288.0,234.3 1296.0,232.0 1304.0,234.4 1312.0,237.4 1320.0,228.8 1328.0,233.0" fill="none" stroke="#ffd93d" stroke-width="1.55" stroke-linecap="round" stroke-linejoin="round"/></g>
<g class="layer wave-scroll" opacity="0.92"><polyline points="0.0,186.7 8.0,217.4 16.0,229.7 24.0,211.5 32.0,222.0 40.0,210.5 48.0,211.1 56.0,218.4 64.0,229.4 72.0,206.8 80.0,199.7 88.0,230.4 96.0,214.2 104.0,221.2 112.0,229.9 120.0,186.7 128.0,217.4 136.0,229.7 144.0,211.5 152.0,222.0 160.0,210.5 168.0,211.1 176.0,218.4 184.0,229.4 192.0,206.8 200.0,199.7 208.0,230.4 216.0,214.2 224.0,221.2 232.0,229.9 240.0,186.7 248.0,217.4 256.0,229.7 264.0,211.5 272.0,222.0 280.0,210.5 288.0,211.1 296.0,218.4 304.0,229.4 312.0,206.8 320.0,199.7 328.0,230.4 336.0,214.2 344.0,221.2 352.0,229.9 360.0,186.7 368.0,217.4 376.0,229.7 384.0,211.5 392.0,222.0 400.0,210.5 408.0,211.1 416.0,218.4 424.0,229.4 432.0,206.8 440.0,199.7 448.0,230.4 456.0,214.2 464.0,221.2 472.0,229.9 480.0,186.7 488.0,217.4 496.0,229.7 504.0,211.5 512.0,222.0 520.0,210.5 528.0,211.1 536.0,218.4 544.0,229.4 552.0,206.8 560.0,199.7 568.0,230.4 576.0,214.2 584.0,221.2 592.0,229.9 600.0,186.7 608.0,217.4 616.0,229.7 624.0,211.5 632.0,222.0 640.0,210.5 648.0,211.1 656.0,218.4 664.0,229.4 672.0,206.8 680.0,199.7 688.0,230.4 696.0,214.2 704.0,221.2 712.0,229.9 720.0,186.7 728.0,217.4 736.0,229.7 744.0,211.5 752.0,222.0 760.0,210.5 768.0,211.1 776.0,218.4 784.0,229.4 792.0,206.8 800.0,199.7 808.0,230.4 816.0,214.2 824.0,221.2 832.0,229.9 840.0,186.7 848.0,217.4 856.0,229.7 864.0,211.5 872.0,222.0 880.0,210.5 888.0,211.1 896.0,218.4 904.0,229.4 912.0,206.8 920.0,199.7 928.0,230.4 936.0,214.2 944.0,221.2 952.0,229.9 960.0,186.7 968.0,217.4 976.0,229.7 984.0,211.5 992.0,222.0 1000.0,210.5 1008.0,211.1 1016.0,218.4 1024.0,229.4 1032.0,206.8 1040.0,199.7 1048.0,230.4 1056.0,214.2 1064.0,221.2 1072.0,229.9 1080.0,186.7 1088.0,217.4 1096.0,229.7 1104.0,211.5 1112.0,222.0 1120.0,210.5 1128.0,211.1 1136.0,218.4 1144.0,229.4 1152.0,206.8 1160.0,199.7 1168.0,230.4 1176.0,214.2 1184.0,221.2 1192.0,229.9 1200.0,186.7 1208.0,217.4 1216.0,229.7 1224.0,211.5 1232.0,222.0 1240.0,210.5 1248.0,211.1 1256.0,218.4 1264.0,229.4 1272.0,206.8 1280.0,199.7 1288.0,230.4 1296.0,214.2 1304.0,221.2 1312.0,229.9 1320.0,186.7 1328.0,217.4" fill="none" stroke="#44d17d" stroke-width="1.55" stroke-linecap="round" stroke-linejoin="round"/></g>
<g class="layer wave-scroll" opacity="0.92"><polyline points="0.0,220.0 8.0,225.0 16.0,225.3 24.0,224.8 32.0,227.2 40.0,221.5 48.0,225.0 56.0,222.1 64.0,225.6 72.0,227.4 80.0,221.5 88.0,221.2 96.0,225.3 104.0,225.6 112.0,227.3 120.0,220.0 128.0,225.0 136.0,225.3 144.0,224.8 152.0,227.2 160.0,221.5 168.0,225.0 176.0,222.1 184.0,225.6 192.0,227.4 200.0,221.5 208.0,221.2 216.0,225.3 224.0,225.6 232.0,227.3 240.0,220.0 248.0,225.0 256.0,225.3 264.0,224.8 272.0,227.2 280.0,221.5 288.0,225.0 296.0,222.1 304.0,225.6 312.0,227.4 320.0,221.5 328.0,221.2 336.0,225.3 344.0,225.6 352.0,227.3 360.0,220.0 368.0,225.0 376.0,225.3 384.0,224.8 392.0,227.2 400.0,221.5 408.0,225.0 416.0,222.1 424.0,225.6 432.0,227.4 440.0,221.5 448.0,221.2 456.0,225.3 464.0,225.6 472.0,227.3 480.0,220.0 488.0,225.0 496.0,225.3 504.0,224.8 512.0,227.2 520.0,221.5 528.0,225.0 536.0,222.1 544.0,225.6 552.0,227.4 560.0,221.5 568.0,221.2 576.0,225.3 584.0,225.6 592.0,227.3 600.0,220.0 608.0,225.0 616.0,225.3 624.0,224.8 632.0,227.2 640.0,221.5 648.0,225.0 656.0,222.1 664.0,225.6 672.0,227.4 680.0,221.5 688.0,221.2 696.0,225.3 704.0,225.6 712.0,227.3 720.0,220.0 728.0,225.0 736.0,225.3 744.0,224.8 752.0,227.2 760.0,221.5 768.0,225.0 776.0,222.1 784.0,225.6 792.0,227.4 800.0,221.5 808.0,221.2 816.0,225.3 824.0,225.6 832.0,227.3 840.0,220.0 848.0,225.0 856.0,225.3 864.0,224.8 872.0,227.2 880.0,221.5 888.0,225.0 896.0,222.1 904.0,225.6 912.0,227.4 920.0,221.5 928.0,221.2 936.0,225.3 944.0,225.6 952.0,227.3 960.0,220.0 968.0,225.0 976.0,225.3 984.0,224.8 992.0,227.2 1000.0,221.5 1008.0,225.0 1016.0,222.1 1024.0,225.6 1032.0,227.4 1040.0,221.5 1048.0,221.2 1056.0,225.3 1064.0,225.6 1072.0,227.3 1080.0,220.0 1088.0,225.0 1096.0,225.3 1104.0,224.8 1112.0,227.2 1120.0,221.5 1128.0,225.0 1136.0,222.1 1144.0,225.6 1152.0,227.4 1160.0,221.5 1168.0,221.2 1176.0,225.3 1184.0,225.6 1192.0,227.3 1200.0,220.0 1208.0,225.0 1216.0,225.3 1224.0,224.8 1232.0,227.2 1240.0,221.5 1248.0,225.0 1256.0,222.1 1264.0,225.6 1272.0,227.4 1280.0,221.5 1288.0,221.2 1296.0,225.3 1304.0,225.6 1312.0,227.3 1320.0,220.0 1328.0,225.0" fill="none" stroke="#35b779" stroke-width="1.55" stroke-linecap="round" stroke-linejoin="round"/></g>
<g class="layer wave-scroll" opacity="0.92"><polyline points="0.0,199.5 8.0,215.7 16.0,208.3 24.0,212.5 32.0,197.9 40.0,210.8 48.0,195.0 56.0,203.3 64.0,207.1 72.0,211.1 80.0,215.3 88.0,205.3 96.0,216.6 104.0,205.2 112.0,204.9 120.0,199.5 128.0,215.7 136.0,208.3 144.0,212.5 152.0,197.9 160.0,210.8 168.0,195.0 176.0,203.3 184.0,207.1 192.0,211.1 200.0,215.3 208.0,205.3 216.0,216.6 224.0,205.2 232.0,204.9 240.0,199.5 248.0,215.7 256.0,208.3 264.0,212.5 272.0,197.9 280.0,210.8 288.0,195.0 296.0,203.3 304.0,207.1 312.0,211.1 320.0,215.3 328.0,205.3 336.0,216.6 344.0,205.2 352.0,204.9 360.0,199.5 368.0,215.7 376.0,208.3 384.0,212.5 392.0,197.9 400.0,210.8 408.0,195.0 416.0,203.3 424.0,207.1 432.0,211.1 440.0,215.3 448.0,205.3 456.0,216.6 464.0,205.2 472.0,204.9 480.0,199.5 488.0,215.7 496.0,208.3 504.0,212.5 512.0,197.9 520.0,210.8 528.0,195.0 536.0,203.3 544.0,207.1 552.0,211.1 560.0,215.3 568.0,205.3 576.0,216.6 584.0,205.2 592.0,204.9 600.0,199.5 608.0,215.7 616.0,208.3 624.0,212.5 632.0,197.9 640.0,210.8 648.0,195.0 656.0,203.3 664.0,207.1 672.0,211.1 680.0,215.3 688.0,205.3 696.0,216.6 704.0,205.2 712.0,204.9 720.0,199.5 728.0,215.7 736.0,208.3 744.0,212.5 752.0,197.9 760.0,210.8 768.0,195.0 776.0,203.3 784.0,207.1 792.0,211.1 800.0,215.3 808.0,205.3 816.0,216.6 824.0,205.2 832.0,204.9 840.0,199.5 848.0,215.7 856.0,208.3 864.0,212.5 872.0,197.9 880.0,210.8 888.0,195.0 896.0,203.3 904.0,207.1 912.0,211.1 920.0,215.3 928.0,205.3 936.0,216.6 944.0,205.2 952.0,204.9 960.0,199.5 968.0,215.7 976.0,208.3 984.0,212.5 992.0,197.9 1000.0,210.8 1008.0,195.0 1016.0,203.3 1024.0,207.1 1032.0,211.1 1040.0,215.3 1048.0,205.3 1056.0,216.6 1064.0,205.2 1072.0,204.9 1080.0,199.5 1088.0,215.7 1096.0,208.3 1104.0,212.5 1112.0,197.9 1120.0,210.8 1128.0,195.0 1136.0,203.3 1144.0,207.1 1152.0,211.1 1160.0,215.3 1168.0,205.3 1176.0,216.6 1184.0,205.2 1192.0,204.9 1200.0,199.5 1208.0,215.7 1216.0,208.3 1224.0,212.5 1232.0,197.9 1240.0,210.8 1248.0,195.0 1256.0,203.3 1264.0,207.1 1272.0,211.1 1280.0,215.3 1288.0,205.3 1296.0,216.6 1304.0,205.2 1312.0,204.9 1320.0,199.5 1328.0,215.7" fill="none" stroke="#7ab8ff" stroke-width="1.55" stroke-linecap="round" stroke-linejoin="round"/></g>
<g class="layer wave-scroll" opacity="0.92"><polyline points="0.0,207.7 8.0,210.3 16.0,207.2 24.0,212.6 32.0,214.0 40.0,207.5 48.0,206.4 56.0,208.5 64.0,206.5 72.0,208.9 80.0,211.9 88.0,210.4 96.0,212.2 104.0,209.5 112.0,204.3 120.0,207.7 128.0,210.3 136.0,207.2 144.0,212.6 152.0,214.0 160.0,207.5 168.0,206.4 176.0,208.5 184.0,206.5 192.0,208.9 200.0,211.9 208.0,210.4 216.0,212.2 224.0,209.5 232.0,204.3 240.0,207.7 248.0,210.3 256.0,207.2 264.0,212.6 272.0,214.0 280.0,207.5 288.0,206.4 296.0,208.5 304.0,206.5 312.0,208.9 320.0,211.9 328.0,210.4 336.0,212.2 344.0,209.5 352.0,204.3 360.0,207.7 368.0,210.3 376.0,207.2 384.0,212.6 392.0,214.0 400.0,207.5 408.0,206.4 416.0,208.5 424.0,206.5 432.0,208.9 440.0,211.9 448.0,210.4 456.0,212.2 464.0,209.5 472.0,204.3 480.0,207.7 488.0,210.3 496.0,207.2 504.0,212.6 512.0,214.0 520.0,207.5 528.0,206.4 536.0,208.5 544.0,206.5 552.0,208.9 560.0,211.9 568.0,210.4 576.0,212.2 584.0,209.5 592.0,204.3 600.0,207.7 608.0,210.3 616.0,207.2 624.0,212.6 632.0,214.0 640.0,207.5 648.0,206.4 656.0,208.5 664.0,206.5 672.0,208.9 680.0,211.9 688.0,210.4 696.0,212.2 704.0,209.5 712.0,204.3 720.0,207.7 728.0,210.3 736.0,207.2 744.0,212.6 752.0,214.0 760.0,207.5 768.0,206.4 776.0,208.5 784.0,206.5 792.0,208.9 800.0,211.9 808.0,210.4 816.0,212.2 824.0,209.5 832.0,204.3 840.0,207.7 848.0,210.3 856.0,207.2 864.0,212.6 872.0,214.0 880.0,207.5 888.0,206.4 896.0,208.5 904.0,206.5 912.0,208.9 920.0,211.9 928.0,210.4 936.0,212.2 944.0,209.5 952.0,204.3 960.0,207.7 968.0,210.3 976.0,207.2 984.0,212.6 992.0,214.0 1000.0,207.5 1008.0,206.4 1016.0,208.5 1024.0,206.5 1032.0,208.9 1040.0,211.9 1048.0,210.4 1056.0,212.2 1064.0,209.5 1072.0,204.3 1080.0,207.7 1088.0,210.3 1096.0,207.2 1104.0,212.6 1112.0,214.0 1120.0,207.5 1128.0,206.4 1136.0,208.5 1144.0,206.5 1152.0,208.9 1160.0,211.9 1168.0,210.4 1176.0,212.2 1184.0,209.5 1192.0,204.3 1200.0,207.7 1208.0,210.3 1216.0,207.2 1224.0,212.6 1232.0,214.0 1240.0,207.5 1248.0,206.4 1256.0,208.5 1264.0,206.5 1272.0,208.9 1280.0,211.9 1288.0,210.4 1296.0,212.2 1304.0,209.5 1312.0,204.3 1320.0,207.7 1328.0,210.3" fill="none" stroke="#4f9cf5" stroke-width="1.55" stroke-linecap="round" stroke-linejoin="round"/></g>
<g class="layer wave-scroll" opacity="0.92"><polyline points="0.0,161.6 8.0,172.5 16.0,202.9 24.0,153.4 32.0,166.1 40.0,174.1 48.0,172.5 56.0,200.3 64.0,141.9 72.0,152.6 80.0,177.6 88.0,185.0 96.0,203.5 104.0,146.5 112.0,143.1 120.0,161.6 128.0,172.5 136.0,202.9 144.0,153.4 152.0,166.1 160.0,174.1 168.0,172.5 176.0,200.3 184.0,141.9 192.0,152.6 200.0,177.6 208.0,185.0 216.0,203.5 224.0,146.5 232.0,143.1 240.0,161.6 248.0,172.5 256.0,202.9 264.0,153.4 272.0,166.1 280.0,174.1 288.0,172.5 296.0,200.3 304.0,141.9 312.0,152.6 320.0,177.6 328.0,185.0 336.0,203.5 344.0,146.5 352.0,143.1 360.0,161.6 368.0,172.5 376.0,202.9 384.0,153.4 392.0,166.1 400.0,174.1 408.0,172.5 416.0,200.3 424.0,141.9 432.0,152.6 440.0,177.6 448.0,185.0 456.0,203.5 464.0,146.5 472.0,143.1 480.0,161.6 488.0,172.5 496.0,202.9 504.0,153.4 512.0,166.1 520.0,174.1 528.0,172.5 536.0,200.3 544.0,141.9 552.0,152.6 560.0,177.6 568.0,185.0 576.0,203.5 584.0,146.5 592.0,143.1 600.0,161.6 608.0,172.5 616.0,202.9 624.0,153.4 632.0,166.1 640.0,174.1 648.0,172.5 656.0,200.3 664.0,141.9 672.0,152.6 680.0,177.6 688.0,185.0 696.0,203.5 704.0,146.5 712.0,143.1 720.0,161.6 728.0,172.5 736.0,202.9 744.0,153.4 752.0,166.1 760.0,174.1 768.0,172.5 776.0,200.3 784.0,141.9 792.0,152.6 800.0,177.6 808.0,185.0 816.0,203.5 824.0,146.5 832.0,143.1 840.0,161.6 848.0,172.5 856.0,202.9 864.0,153.4 872.0,166.1 880.0,174.1 888.0,172.5 896.0,200.3 904.0,141.9 912.0,152.6 920.0,177.6 928.0,185.0 936.0,203.5 944.0,146.5 952.0,143.1 960.0,161.6 968.0,172.5 976.0,202.9 984.0,153.4 992.0,166.1 1000.0,174.1 1008.0,172.5 1016.0,200.3 1024.0,141.9 1032.0,152.6 1040.0,177.6 1048.0,185.0 1056.0,203.5 1064.0,146.5 1072.0,143.1 1080.0,161.6 1088.0,172.5 1096.0,202.9 1104.0,153.4 1112.0,166.1 1120.0,174.1 1128.0,172.5 1136.0,200.3 1144.0,141.9 1152.0,152.6 1160.0,177.6 1168.0,185.0 1176.0,203.5 1184.0,146.5 1192.0,143.1 1200.0,161.6 1208.0,172.5 1216.0,202.9 1224.0,153.4 1232.0,166.1 1240.0,174.1 1248.0,172.5 1256.0,200.3 1264.0,141.9 1272.0,152.6 1280.0,177.6 1288.0,185.0 1296.0,203.5 1304.0,146.5 1312.0,143.1 1320.0,161.6 1328.0,172.5" fill="none" stroke="#6f52b8" stroke-width="1.55" stroke-linecap="round" stroke-linejoin="round"/></g>
<g class="layer wave-scroll" opacity="0.92"><polyline points="0.0,201.4 8.0,203.8 16.0,203.8 24.0,201.8 32.0,199.0 40.0,204.2 48.0,202.4 56.0,202.6 64.0,202.9 72.0,201.7 80.0,200.6 88.0,202.1 96.0,203.6 104.0,204.2 112.0,197.6 120.0,201.4 128.0,203.8 136.0,203.8 144.0,201.8 152.0,199.0 160.0,204.2 168.0,202.4 176.0,202.6 184.0,202.9 192.0,201.7 200.0,200.6 208.0,202.1 216.0,203.6 224.0,204.2 232.0,197.6 240.0,201.4 248.0,203.8 256.0,203.8 264.0,201.8 272.0,199.0 280.0,204.2 288.0,202.4 296.0,202.6 304.0,202.9 312.0,201.7 320.0,200.6 328.0,202.1 336.0,203.6 344.0,204.2 352.0,197.6 360.0,201.4 368.0,203.8 376.0,203.8 384.0,201.8 392.0,199.0 400.0,204.2 408.0,202.4 416.0,202.6 424.0,202.9 432.0,201.7 440.0,200.6 448.0,202.1 456.0,203.6 464.0,204.2 472.0,197.6 480.0,201.4 488.0,203.8 496.0,203.8 504.0,201.8 512.0,199.0 520.0,204.2 528.0,202.4 536.0,202.6 544.0,202.9 552.0,201.7 560.0,200.6 568.0,202.1 576.0,203.6 584.0,204.2 592.0,197.6 600.0,201.4 608.0,203.8 616.0,203.8 624.0,201.8 632.0,199.0 640.0,204.2 648.0,202.4 656.0,202.6 664.0,202.9 672.0,201.7 680.0,200.6 688.0,202.1 696.0,203.6 704.0,204.2 712.0,197.6 720.0,201.4 728.0,203.8 736.0,203.8 744.0,201.8 752.0,199.0 760.0,204.2 768.0,202.4 776.0,202.6 784.0,202.9 792.0,201.7 800.0,200.6 808.0,202.1 816.0,203.6 824.0,204.2 832.0,197.6 840.0,201.4 848.0,203.8 856.0,203.8 864.0,201.8 872.0,199.0 880.0,204.2 888.0,202.4 896.0,202.6 904.0,202.9 912.0,201.7 920.0,200.6 928.0,202.1 936.0,203.6 944.0,204.2 952.0,197.6 960.0,201.4 968.0,203.8 976.0,203.8 984.0,201.8 992.0,199.0 1000.0,204.2 1008.0,202.4 1016.0,202.6 1024.0,202.9 1032.0,201.7 1040.0,200.6 1048.0,202.1 1056.0,203.6 1064.0,204.2 1072.0,197.6 1080.0,201.4 1088.0,203.8 1096.0,203.8 1104.0,201.8 1112.0,199.0 1120.0,204.2 1128.0,202.4 1136.0,202.6 1144.0,202.9 1152.0,201.7 1160.0,200.6 1168.0,202.1 1176.0,203.6 1184.0,204.2 1192.0,197.6 1200.0,201.4 1208.0,203.8 1216.0,203.8 1224.0,201.8 1232.0,199.0 1240.0,204.2 1248.0,202.4 1256.0,202.6 1264.0,202.9 1272.0,201.7 1280.0,200.6 1288.0,202.1 1296.0,203.6 1304.0,204.2 1312.0,197.6 1320.0,201.4 1328.0,203.8" fill="none" stroke="#9c4dcc" stroke-width="1.55" stroke-linecap="round" stroke-linejoin="round"/></g>
<g class="layer wave-scroll" opacity="0.92"><polyline points="0.0,187.1 8.0,198.5 16.0,176.2 24.0,187.1 32.0,198.1 40.0,186.8 48.0,186.9 56.0,198.0 64.0,184.6 72.0,185.1 80.0,198.2 88.0,182.3 96.0,189.3 104.0,185.1 112.0,183.6 120.0,187.1 128.0,198.5 136.0,176.2 144.0,187.1 152.0,198.1 160.0,186.8 168.0,186.9 176.0,198.0 184.0,184.6 192.0,185.1 200.0,198.2 208.0,182.3 216.0,189.3 224.0,185.1 232.0,183.6 240.0,187.1 248.0,198.5 256.0,176.2 264.0,187.1 272.0,198.1 280.0,186.8 288.0,186.9 296.0,198.0 304.0,184.6 312.0,185.1 320.0,198.2 328.0,182.3 336.0,189.3 344.0,185.1 352.0,183.6 360.0,187.1 368.0,198.5 376.0,176.2 384.0,187.1 392.0,198.1 400.0,186.8 408.0,186.9 416.0,198.0 424.0,184.6 432.0,185.1 440.0,198.2 448.0,182.3 456.0,189.3 464.0,185.1 472.0,183.6 480.0,187.1 488.0,198.5 496.0,176.2 504.0,187.1 512.0,198.1 520.0,186.8 528.0,186.9 536.0,198.0 544.0,184.6 552.0,185.1 560.0,198.2 568.0,182.3 576.0,189.3 584.0,185.1 592.0,183.6 600.0,187.1 608.0,198.5 616.0,176.2 624.0,187.1 632.0,198.1 640.0,186.8 648.0,186.9 656.0,198.0 664.0,184.6 672.0,185.1 680.0,198.2 688.0,182.3 696.0,189.3 704.0,185.1 712.0,183.6 720.0,187.1 728.0,198.5 736.0,176.2 744.0,187.1 752.0,198.1 760.0,186.8 768.0,186.9 776.0,198.0 784.0,184.6 792.0,185.1 800.0,198.2 808.0,182.3 816.0,189.3 824.0,185.1 832.0,183.6 840.0,187.1 848.0,198.5 856.0,176.2 864.0,187.1 872.0,198.1 880.0,186.8 888.0,186.9 896.0,198.0 904.0,184.6 912.0,185.1 920.0,198.2 928.0,182.3 936.0,189.3 944.0,185.1 952.0,183.6 960.0,187.1 968.0,198.5 976.0,176.2 984.0,187.1 992.0,198.1 1000.0,186.8 1008.0,186.9 1016.0,198.0 1024.0,184.6 1032.0,185.1 1040.0,198.2 1048.0,182.3 1056.0,189.3 1064.0,185.1 1072.0,183.6 1080.0,187.1 1088.0,198.5 1096.0,176.2 1104.0,187.1 1112.0,198.1 1120.0,186.8 1128.0,186.9 1136.0,198.0 1144.0,184.6 1152.0,185.1 1160.0,198.2 1168.0,182.3 1176.0,189.3 1184.0,185.1 1192.0,183.6 1200.0,187.1 1208.0,198.5 1216.0,176.2 1224.0,187.1 1232.0,198.1 1240.0,186.8 1248.0,186.9 1256.0,198.0 1264.0,184.6 1272.0,185.1 1280.0,198.2 1288.0,182.3 1296.0,189.3 1304.0,185.1 1312.0,183.6 1320.0,187.1 1328.0,198.5" fill="none" stroke="#bd62d9" stroke-width="1.55" stroke-linecap="round" stroke-linejoin="round"/></g>
<g class="layer wave-scroll" opacity="0.92"><polyline points="0.0,186.4 8.0,190.1 16.0,185.8 24.0,184.5 32.0,186.9 40.0,186.8 48.0,189.0 56.0,188.0 64.0,190.6 72.0,184.9 80.0,184.9 88.0,185.8 96.0,185.8 104.0,191.0 112.0,185.5 120.0,186.4 128.0,190.1 136.0,185.8 144.0,184.5 152.0,186.9 160.0,186.8 168.0,189.0 176.0,188.0 184.0,190.6 192.0,184.9 200.0,184.9 208.0,185.8 216.0,185.8 224.0,191.0 232.0,185.5 240.0,186.4 248.0,190.1 256.0,185.8 264.0,184.5 272.0,186.9 280.0,186.8 288.0,189.0 296.0,188.0 304.0,190.6 312.0,184.9 320.0,184.9 328.0,185.8 336.0,185.8 344.0,191.0 352.0,185.5 360.0,186.4 368.0,190.1 376.0,185.8 384.0,184.5 392.0,186.9 400.0,186.8 408.0,189.0 416.0,188.0 424.0,190.6 432.0,184.9 440.0,184.9 448.0,185.8 456.0,185.8 464.0,191.0 472.0,185.5 480.0,186.4 488.0,190.1 496.0,185.8 504.0,184.5 512.0,186.9 520.0,186.8 528.0,189.0 536.0,188.0 544.0,190.6 552.0,184.9 560.0,184.9 568.0,185.8 576.0,185.8 584.0,191.0 592.0,185.5 600.0,186.4 608.0,190.1 616.0,185.8 624.0,184.5 632.0,186.9 640.0,186.8 648.0,189.0 656.0,188.0 664.0,190.6 672.0,184.9 680.0,184.9 688.0,185.8 696.0,185.8 704.0,191.0 712.0,185.5 720.0,186.4 728.0,190.1 736.0,185.8 744.0,184.5 752.0,186.9 760.0,186.8 768.0,189.0 776.0,188.0 784.0,190.6 792.0,184.9 800.0,184.9 808.0,185.8 816.0,185.8 824.0,191.0 832.0,185.5 840.0,186.4 848.0,190.1 856.0,185.8 864.0,184.5 872.0,186.9 880.0,186.8 888.0,189.0 896.0,188.0 904.0,190.6 912.0,184.9 920.0,184.9 928.0,185.8 936.0,185.8 944.0,191.0 952.0,185.5 960.0,186.4 968.0,190.1 976.0,185.8 984.0,184.5 992.0,186.9 1000.0,186.8 1008.0,189.0 1016.0,188.0 1024.0,190.6 1032.0,184.9 1040.0,184.9 1048.0,185.8 1056.0,185.8 1064.0,191.0 1072.0,185.5 1080.0,186.4 1088.0,190.1 1096.0,185.8 1104.0,184.5 1112.0,186.9 1120.0,186.8 1128.0,189.0 1136.0,188.0 1144.0,190.6 1152.0,184.9 1160.0,184.9 1168.0,185.8 1176.0,185.8 1184.0,191.0 1192.0,185.5 1200.0,186.4 1208.0,190.1 1216.0,185.8 1224.0,184.5 1232.0,186.9 1240.0,186.8 1248.0,189.0 1256.0,188.0 1264.0,190.6 1272.0,184.9 1280.0,184.9 1288.0,185.8 1296.0,185.8 1304.0,191.0 1312.0,185.5 1320.0,186.4 1328.0,190.1" fill="none" stroke="#ffc66d" stroke-width="1.55" stroke-linecap="round" stroke-linejoin="round"/></g>
<g class="layer wave-scroll" opacity="0.92"><polyline points="0.0,169.5 8.0,149.1 16.0,174.3 24.0,177.4 32.0,149.5 40.0,177.8 48.0,162.6 56.0,161.2 64.0,166.3 72.0,184.9 80.0,151.3 88.0,182.9 96.0,164.5 104.0,153.1 112.0,159.2 120.0,169.5 128.0,149.1 136.0,174.3 144.0,177.4 152.0,149.5 160.0,177.8 168.0,162.6 176.0,161.2 184.0,166.3 192.0,184.9 200.0,151.3 208.0,182.9 216.0,164.5 224.0,153.1 232.0,159.2 240.0,169.5 248.0,149.1 256.0,174.3 264.0,177.4 272.0,149.5 280.0,177.8 288.0,162.6 296.0,161.2 304.0,166.3 312.0,184.9 320.0,151.3 328.0,182.9 336.0,164.5 344.0,153.1 352.0,159.2 360.0,169.5 368.0,149.1 376.0,174.3 384.0,177.4 392.0,149.5 400.0,177.8 408.0,162.6 416.0,161.2 424.0,166.3 432.0,184.9 440.0,151.3 448.0,182.9 456.0,164.5 464.0,153.1 472.0,159.2 480.0,169.5 488.0,149.1 496.0,174.3 504.0,177.4 512.0,149.5 520.0,177.8 528.0,162.6 536.0,161.2 544.0,166.3 552.0,184.9 560.0,151.3 568.0,182.9 576.0,164.5 584.0,153.1 592.0,159.2 600.0,169.5 608.0,149.1 616.0,174.3 624.0,177.4 632.0,149.5 640.0,177.8 648.0,162.6 656.0,161.2 664.0,166.3 672.0,184.9 680.0,151.3 688.0,182.9 696.0,164.5 704.0,153.1 712.0,159.2 720.0,169.5 728.0,149.1 736.0,174.3 744.0,177.4 752.0,149.5 760.0,177.8 768.0,162.6 776.0,161.2 784.0,166.3 792.0,184.9 800.0,151.3 808.0,182.9 816.0,164.5 824.0,153.1 832.0,159.2 840.0,169.5 848.0,149.1 856.0,174.3 864.0,177.4 872.0,149.5 880.0,177.8 888.0,162.6 896.0,161.2 904.0,166.3 912.0,184.9 920.0,151.3 928.0,182.9 936.0,164.5 944.0,153.1 952.0,159.2 960.0,169.5 968.0,149.1 976.0,174.3 984.0,177.4 992.0,149.5 1000.0,177.8 1008.0,162.6 1016.0,161.2 1024.0,166.3 1032.0,184.9 1040.0,151.3 1048.0,182.9 1056.0,164.5 1064.0,153.1 1072.0,159.2 1080.0,169.5 1088.0,149.1 1096.0,174.3 1104.0,177.4 1112.0,149.5 1120.0,177.8 1128.0,162.6 1136.0,161.2 1144.0,166.3 1152.0,184.9 1160.0,151.3 1168.0,182.9 1176.0,164.5 1184.0,153.1 1192.0,159.2 1200.0,169.5 1208.0,149.1 1216.0,174.3 1224.0,177.4 1232.0,149.5 1240.0,177.8 1248.0,162.6 1256.0,161.2 1264.0,166.3 1272.0,184.9 1280.0,151.3 1288.0,182.9 1296.0,164.5 1304.0,153.1 1312.0,159.2 1320.0,169.5 1328.0,149.1" fill="none" stroke="#f2e85e" stroke-width="1.55" stroke-linecap="round" stroke-linejoin="round"/></g>
<g class="layer wave-scroll" opacity="0.92"><polyline points="0.0,179.6 8.0,177.9 16.0,180.7 24.0,178.3 32.0,176.8 40.0,177.6 48.0,175.1 56.0,179.3 64.0,180.7 72.0,181.2 80.0,179.3 88.0,174.9 96.0,178.2 104.0,177.9 112.0,177.7 120.0,179.6 128.0,177.9 136.0,180.7 144.0,178.3 152.0,176.8 160.0,177.6 168.0,175.1 176.0,179.3 184.0,180.7 192.0,181.2 200.0,179.3 208.0,174.9 216.0,178.2 224.0,177.9 232.0,177.7 240.0,179.6 248.0,177.9 256.0,180.7 264.0,178.3 272.0,176.8 280.0,177.6 288.0,175.1 296.0,179.3 304.0,180.7 312.0,181.2 320.0,179.3 328.0,174.9 336.0,178.2 344.0,177.9 352.0,177.7 360.0,179.6 368.0,177.9 376.0,180.7 384.0,178.3 392.0,176.8 400.0,177.6 408.0,175.1 416.0,179.3 424.0,180.7 432.0,181.2 440.0,179.3 448.0,174.9 456.0,178.2 464.0,177.9 472.0,177.7 480.0,179.6 488.0,177.9 496.0,180.7 504.0,178.3 512.0,176.8 520.0,177.6 528.0,175.1 536.0,179.3 544.0,180.7 552.0,181.2 560.0,179.3 568.0,174.9 576.0,178.2 584.0,177.9 592.0,177.7 600.0,179.6 608.0,177.9 616.0,180.7 624.0,178.3 632.0,176.8 640.0,177.6 648.0,175.1 656.0,179.3 664.0,180.7 672.0,181.2 680.0,179.3 688.0,174.9 696.0,178.2 704.0,177.9 712.0,177.7 720.0,179.6 728.0,177.9 736.0,180.7 744.0,178.3 752.0,176.8 760.0,177.6 768.0,175.1 776.0,179.3 784.0,180.7 792.0,181.2 800.0,179.3 808.0,174.9 816.0,178.2 824.0,177.9 832.0,177.7 840.0,179.6 848.0,177.9 856.0,180.7 864.0,178.3 872.0,176.8 880.0,177.6 888.0,175.1 896.0,179.3 904.0,180.7 912.0,181.2 920.0,179.3 928.0,174.9 936.0,178.2 944.0,177.9 952.0,177.7 960.0,179.6 968.0,177.9 976.0,180.7 984.0,178.3 992.0,176.8 1000.0,177.6 1008.0,175.1 1016.0,179.3 1024.0,180.7 1032.0,181.2 1040.0,179.3 1048.0,174.9 1056.0,178.2 1064.0,177.9 1072.0,177.7 1080.0,179.6 1088.0,177.9 1096.0,180.7 1104.0,178.3 1112.0,176.8 1120.0,177.6 1128.0,175.1 1136.0,179.3 1144.0,180.7 1152.0,181.2 1160.0,179.3 1168.0,174.9 1176.0,178.2 1184.0,177.9 1192.0,177.7 1200.0,179.6 1208.0,177.9 1216.0,180.7 1224.0,178.3 1232.0,176.8 1240.0,177.6 1248.0,175.1 1256.0,179.3 1264.0,180.7 1272.0,181.2 1280.0,179.3 1288.0,174.9 1296.0,178.2 1304.0,177.9 1312.0,177.7 1320.0,179.6 1328.0,177.9" fill="none" stroke="#a5f3b0" stroke-width="1.55" stroke-linecap="round" stroke-linejoin="round"/></g>
<g class="layer wave-scroll" opacity="0.92"><polyline points="0.0,170.4 8.0,173.2 16.0,161.0 24.0,142.9 32.0,162.8 40.0,171.9 48.0,171.4 56.0,157.9 64.0,149.9 72.0,164.5 80.0,169.6 88.0,171.2 96.0,164.7 104.0,148.8 112.0,158.2 120.0,170.4 128.0,173.2 136.0,161.0 144.0,142.9 152.0,162.8 160.0,171.9 168.0,171.4 176.0,157.9 184.0,149.9 192.0,164.5 200.0,169.6 208.0,171.2 216.0,164.7 224.0,148.8 232.0,158.2 240.0,170.4 248.0,173.2 256.0,161.0 264.0,142.9 272.0,162.8 280.0,171.9 288.0,171.4 296.0,157.9 304.0,149.9 312.0,164.5 320.0,169.6 328.0,171.2 336.0,164.7 344.0,148.8 352.0,158.2 360.0,170.4 368.0,173.2 376.0,161.0 384.0,142.9 392.0,162.8 400.0,171.9 408.0,171.4 416.0,157.9 424.0,149.9 432.0,164.5 440.0,169.6 448.0,171.2 456.0,164.7 464.0,148.8 472.0,158.2 480.0,170.4 488.0,173.2 496.0,161.0 504.0,142.9 512.0,162.8 520.0,171.9 528.0,171.4 536.0,157.9 544.0,149.9 552.0,164.5 560.0,169.6 568.0,171.2 576.0,164.7 584.0,148.8 592.0,158.2 600.0,170.4 608.0,173.2 616.0,161.0 624.0,142.9 632.0,162.8 640.0,171.9 648.0,171.4 656.0,157.9 664.0,149.9 672.0,164.5 680.0,169.6 688.0,171.2 696.0,164.7 704.0,148.8 712.0,158.2 720.0,170.4 728.0,173.2 736.0,161.0 744.0,142.9 752.0,162.8 760.0,171.9 768.0,171.4 776.0,157.9 784.0,149.9 792.0,164.5 800.0,169.6 808.0,171.2 816.0,164.7 824.0,148.8 832.0,158.2 840.0,170.4 848.0,173.2 856.0,161.0 864.0,142.9 872.0,162.8 880.0,171.9 888.0,171.4 896.0,157.9 904.0,149.9 912.0,164.5 920.0,169.6 928.0,171.2 936.0,164.7 944.0,148.8 952.0,158.2 960.0,170.4 968.0,173.2 976.0,161.0 984.0,142.9 992.0,162.8 1000.0,171.9 1008.0,171.4 1016.0,157.9 1024.0,149.9 1032.0,164.5 1040.0,169.6 1048.0,171.2 1056.0,164.7 1064.0,148.8 1072.0,158.2 1080.0,170.4 1088.0,173.2 1096.0,161.0 1104.0,142.9 1112.0,162.8 1120.0,171.9 1128.0,171.4 1136.0,157.9 1144.0,149.9 1152.0,164.5 1160.0,169.6 1168.0,171.2 1176.0,164.7 1184.0,148.8 1192.0,158.2 1200.0,170.4 1208.0,173.2 1216.0,161.0 1224.0,142.9 1232.0,162.8 1240.0,171.9 1248.0,171.4 1256.0,157.9 1264.0,149.9 1272.0,164.5 1280.0,169.6 1288.0,171.2 1296.0,164.7 1304.0,148.8 1312.0,158.2 1320.0,170.4 1328.0,173.2" fill="none" stroke="#4fd17f" stroke-width="1.55" stroke-linecap="round" stroke-linejoin="round"/></g>
<g class="layer wave-scroll" opacity="0.92"><polyline points="0.0,165.6 8.0,167.9 16.0,161.6 24.0,165.8 32.0,163.3 40.0,163.3 48.0,164.4 56.0,168.6 64.0,165.3 72.0,164.5 80.0,166.7 88.0,167.6 96.0,167.6 104.0,166.1 112.0,163.0 120.0,165.6 128.0,167.9 136.0,161.6 144.0,165.8 152.0,163.3 160.0,163.3 168.0,164.4 176.0,168.6 184.0,165.3 192.0,164.5 200.0,166.7 208.0,167.6 216.0,167.6 224.0,166.1 232.0,163.0 240.0,165.6 248.0,167.9 256.0,161.6 264.0,165.8 272.0,163.3 280.0,163.3 288.0,164.4 296.0,168.6 304.0,165.3 312.0,164.5 320.0,166.7 328.0,167.6 336.0,167.6 344.0,166.1 352.0,163.0 360.0,165.6 368.0,167.9 376.0,161.6 384.0,165.8 392.0,163.3 400.0,163.3 408.0,164.4 416.0,168.6 424.0,165.3 432.0,164.5 440.0,166.7 448.0,167.6 456.0,167.6 464.0,166.1 472.0,163.0 480.0,165.6 488.0,167.9 496.0,161.6 504.0,165.8 512.0,163.3 520.0,163.3 528.0,164.4 536.0,168.6 544.0,165.3 552.0,164.5 560.0,166.7 568.0,167.6 576.0,167.6 584.0,166.1 592.0,163.0 600.0,165.6 608.0,167.9 616.0,161.6 624.0,165.8 632.0,163.3 640.0,163.3 648.0,164.4 656.0,168.6 664.0,165.3 672.0,164.5 680.0,166.7 688.0,167.6 696.0,167.6 704.0,166.1 712.0,163.0 720.0,165.6 728.0,167.9 736.0,161.6 744.0,165.8 752.0,163.3 760.0,163.3 768.0,164.4 776.0,168.6 784.0,165.3 792.0,164.5 800.0,166.7 808.0,167.6 816.0,167.6 824.0,166.1 832.0,163.0 840.0,165.6 848.0,167.9 856.0,161.6 864.0,165.8 872.0,163.3 880.0,163.3 888.0,164.4 896.0,168.6 904.0,165.3 912.0,164.5 920.0,166.7 928.0,167.6 936.0,167.6 944.0,166.1 952.0,163.0 960.0,165.6 968.0,167.9 976.0,161.6 984.0,165.8 992.0,163.3 1000.0,163.3 1008.0,164.4 1016.0,168.6 1024.0,165.3 1032.0,164.5 1040.0,166.7 1048.0,167.6 1056.0,167.6 1064.0,166.1 1072.0,163.0 1080.0,165.6 1088.0,167.9 1096.0,161.6 1104.0,165.8 1112.0,163.3 1120.0,163.3 1128.0,164.4 1136.0,168.6 1144.0,165.3 1152.0,164.5 1160.0,166.7 1168.0,167.6 1176.0,167.6 1184.0,166.1 1192.0,163.0 1200.0,165.6 1208.0,167.9 1216.0,161.6 1224.0,165.8 1232.0,163.3 1240.0,163.3 1248.0,164.4 1256.0,168.6 1264.0,165.3 1272.0,164.5 1280.0,166.7 1288.0,167.6 1296.0,167.6 1304.0,166.1 1312.0,163.0 1320.0,165.6 1328.0,167.9" fill="none" stroke="#2f7ed8" stroke-width="1.55" stroke-linecap="round" stroke-linejoin="round"/></g>
<g class="layer wave-scroll" opacity="0.92"><polyline points="0.0,135.1 8.0,143.5 16.0,144.1 24.0,161.1 32.0,138.8 40.0,135.9 48.0,160.2 56.0,117.0 64.0,132.9 72.0,161.5 80.0,143.7 88.0,139.9 96.0,160.5 104.0,136.4 112.0,131.4 120.0,135.1 128.0,143.5 136.0,144.1 144.0,161.1 152.0,138.8 160.0,135.9 168.0,160.2 176.0,117.0 184.0,132.9 192.0,161.5 200.0,143.7 208.0,139.9 216.0,160.5 224.0,136.4 232.0,131.4 240.0,135.1 248.0,143.5 256.0,144.1 264.0,161.1 272.0,138.8 280.0,135.9 288.0,160.2 296.0,117.0 304.0,132.9 312.0,161.5 320.0,143.7 328.0,139.9 336.0,160.5 344.0,136.4 352.0,131.4 360.0,135.1 368.0,143.5 376.0,144.1 384.0,161.1 392.0,138.8 400.0,135.9 408.0,160.2 416.0,117.0 424.0,132.9 432.0,161.5 440.0,143.7 448.0,139.9 456.0,160.5 464.0,136.4 472.0,131.4 480.0,135.1 488.0,143.5 496.0,144.1 504.0,161.1 512.0,138.8 520.0,135.9 528.0,160.2 536.0,117.0 544.0,132.9 552.0,161.5 560.0,143.7 568.0,139.9 576.0,160.5 584.0,136.4 592.0,131.4 600.0,135.1 608.0,143.5 616.0,144.1 624.0,161.1 632.0,138.8 640.0,135.9 648.0,160.2 656.0,117.0 664.0,132.9 672.0,161.5 680.0,143.7 688.0,139.9 696.0,160.5 704.0,136.4 712.0,131.4 720.0,135.1 728.0,143.5 736.0,144.1 744.0,161.1 752.0,138.8 760.0,135.9 768.0,160.2 776.0,117.0 784.0,132.9 792.0,161.5 800.0,143.7 808.0,139.9 816.0,160.5 824.0,136.4 832.0,131.4 840.0,135.1 848.0,143.5 856.0,144.1 864.0,161.1 872.0,138.8 880.0,135.9 888.0,160.2 896.0,117.0 904.0,132.9 912.0,161.5 920.0,143.7 928.0,139.9 936.0,160.5 944.0,136.4 952.0,131.4 960.0,135.1 968.0,143.5 976.0,144.1 984.0,161.1 992.0,138.8 1000.0,135.9 1008.0,160.2 1016.0,117.0 1024.0,132.9 1032.0,161.5 1040.0,143.7 1048.0,139.9 1056.0,160.5 1064.0,136.4 1072.0,131.4 1080.0,135.1 1088.0,143.5 1096.0,144.1 1104.0,161.1 1112.0,138.8 1120.0,135.9 1128.0,160.2 1136.0,117.0 1144.0,132.9 1152.0,161.5 1160.0,143.7 1168.0,139.9 1176.0,160.5 1184.0,136.4 1192.0,131.4 1200.0,135.1 1208.0,143.5 1216.0,144.1 1224.0,161.1 1232.0,138.8 1240.0,135.9 1248.0,160.2 1256.0,117.0 1264.0,132.9 1272.0,161.5 1280.0,143.7 1288.0,139.9 1296.0,160.5 1304.0,136.4 1312.0,131.4 1320.0,135.1 1328.0,143.5" fill="none" stroke="#c86ad8" stroke-width="1.55" stroke-linecap="round" stroke-linejoin="round"/></g>
<g class="layer wave-scroll" opacity="0.92"><polyline points="0.0,157.7 8.0,156.5 16.0,157.6 24.0,155.0 32.0,155.1 40.0,158.4 48.0,155.9 56.0,157.6 64.0,155.6 72.0,154.5 80.0,158.4 88.0,156.5 96.0,156.9 104.0,155.6 112.0,155.1 120.0,157.7 128.0,156.5 136.0,157.6 144.0,155.0 152.0,155.1 160.0,158.4 168.0,155.9 176.0,157.6 184.0,155.6 192.0,154.5 200.0,158.4 208.0,156.5 216.0,156.9 224.0,155.6 232.0,155.1 240.0,157.7 248.0,156.5 256.0,157.6 264.0,155.0 272.0,155.1 280.0,158.4 288.0,155.9 296.0,157.6 304.0,155.6 312.0,154.5 320.0,158.4 328.0,156.5 336.0,156.9 344.0,155.6 352.0,155.1 360.0,157.7 368.0,156.5 376.0,157.6 384.0,155.0 392.0,155.1 400.0,158.4 408.0,155.9 416.0,157.6 424.0,155.6 432.0,154.5 440.0,158.4 448.0,156.5 456.0,156.9 464.0,155.6 472.0,155.1 480.0,157.7 488.0,156.5 496.0,157.6 504.0,155.0 512.0,155.1 520.0,158.4 528.0,155.9 536.0,157.6 544.0,155.6 552.0,154.5 560.0,158.4 568.0,156.5 576.0,156.9 584.0,155.6 592.0,155.1 600.0,157.7 608.0,156.5 616.0,157.6 624.0,155.0 632.0,155.1 640.0,158.4 648.0,155.9 656.0,157.6 664.0,155.6 672.0,154.5 680.0,158.4 688.0,156.5 696.0,156.9 704.0,155.6 712.0,155.1 720.0,157.7 728.0,156.5 736.0,157.6 744.0,155.0 752.0,155.1 760.0,158.4 768.0,155.9 776.0,157.6 784.0,155.6 792.0,154.5 800.0,158.4 808.0,156.5 816.0,156.9 824.0,155.6 832.0,155.1 840.0,157.7 848.0,156.5 856.0,157.6 864.0,155.0 872.0,155.1 880.0,158.4 888.0,155.9 896.0,157.6 904.0,155.6 912.0,154.5 920.0,158.4 928.0,156.5 936.0,156.9 944.0,155.6 952.0,155.1 960.0,157.7 968.0,156.5 976.0,157.6 984.0,155.0 992.0,155.1 1000.0,158.4 1008.0,155.9 1016.0,157.6 1024.0,155.6 1032.0,154.5 1040.0,158.4 1048.0,156.5 1056.0,156.9 1064.0,155.6 1072.0,155.1 1080.0,157.7 1088.0,156.5 1096.0,157.6 1104.0,155.0 1112.0,155.1 1120.0,158.4 1128.0,155.9 1136.0,157.6 1144.0,155.6 1152.0,154.5 1160.0,158.4 1168.0,156.5 1176.0,156.9 1184.0,155.6 1192.0,155.1 1200.0,157.7 1208.0,156.5 1216.0,157.6 1224.0,155.0 1232.0,155.1 1240.0,158.4 1248.0,155.9 1256.0,157.6 1264.0,155.6 1272.0,154.5 1280.0,158.4 1288.0,156.5 1296.0,156.9 1304.0,155.6 1312.0,155.1 1320.0,157.7 1328.0,156.5" fill="none" stroke="#77d6f0" stroke-width="1.55" stroke-linecap="round" stroke-linejoin="round"/></g>
<g class="layer wave-scroll" opacity="0.92"><polyline points="0.0,150.9 8.0,146.2 16.0,151.7 24.0,141.8 32.0,143.1 40.0,145.4 48.0,150.7 56.0,143.9 64.0,150.6 72.0,135.2 80.0,143.8 88.0,146.5 96.0,147.4 104.0,147.0 112.0,131.1 120.0,150.9 128.0,146.2 136.0,151.7 144.0,141.8 152.0,143.1 160.0,145.4 168.0,150.7 176.0,143.9 184.0,150.6 192.0,135.2 200.0,143.8 208.0,146.5 216.0,147.4 224.0,147.0 232.0,131.1 240.0,150.9 248.0,146.2 256.0,151.7 264.0,141.8 272.0,143.1 280.0,145.4 288.0,150.7 296.0,143.9 304.0,150.6 312.0,135.2 320.0,143.8 328.0,146.5 336.0,147.4 344.0,147.0 352.0,131.1 360.0,150.9 368.0,146.2 376.0,151.7 384.0,141.8 392.0,143.1 400.0,145.4 408.0,150.7 416.0,143.9 424.0,150.6 432.0,135.2 440.0,143.8 448.0,146.5 456.0,147.4 464.0,147.0 472.0,131.1 480.0,150.9 488.0,146.2 496.0,151.7 504.0,141.8 512.0,143.1 520.0,145.4 528.0,150.7 536.0,143.9 544.0,150.6 552.0,135.2 560.0,143.8 568.0,146.5 576.0,147.4 584.0,147.0 592.0,131.1 600.0,150.9 608.0,146.2 616.0,151.7 624.0,141.8 632.0,143.1 640.0,145.4 648.0,150.7 656.0,143.9 664.0,150.6 672.0,135.2 680.0,143.8 688.0,146.5 696.0,147.4 704.0,147.0 712.0,131.1 720.0,150.9 728.0,146.2 736.0,151.7 744.0,141.8 752.0,143.1 760.0,145.4 768.0,150.7 776.0,143.9 784.0,150.6 792.0,135.2 800.0,143.8 808.0,146.5 816.0,147.4 824.0,147.0 832.0,131.1 840.0,150.9 848.0,146.2 856.0,151.7 864.0,141.8 872.0,143.1 880.0,145.4 888.0,150.7 896.0,143.9 904.0,150.6 912.0,135.2 920.0,143.8 928.0,146.5 936.0,147.4 944.0,147.0 952.0,131.1 960.0,150.9 968.0,146.2 976.0,151.7 984.0,141.8 992.0,143.1 1000.0,145.4 1008.0,150.7 1016.0,143.9 1024.0,150.6 1032.0,135.2 1040.0,143.8 1048.0,146.5 1056.0,147.4 1064.0,147.0 1072.0,131.1 1080.0,150.9 1088.0,146.2 1096.0,151.7 1104.0,141.8 1112.0,143.1 1120.0,145.4 1128.0,150.7 1136.0,143.9 1144.0,150.6 1152.0,135.2 1160.0,143.8 1168.0,146.5 1176.0,147.4 1184.0,147.0 1192.0,131.1 1200.0,150.9 1208.0,146.2 1216.0,151.7 1224.0,141.8 1232.0,143.1 1240.0,145.4 1248.0,150.7 1256.0,143.9 1264.0,150.6 1272.0,135.2 1280.0,143.8 1288.0,146.5 1296.0,147.4 1304.0,147.0 1312.0,131.1 1320.0,150.9 1328.0,146.2" fill="none" stroke="#f4e27a" stroke-width="1.55" stroke-linecap="round" stroke-linejoin="round"/></g>
<g class="layer wave-scroll" opacity="0.92"><polyline points="0.0,146.5 8.0,144.9 16.0,140.9 24.0,144.4 32.0,143.5 40.0,145.8 48.0,148.4 56.0,145.1 64.0,144.5 72.0,144.3 80.0,143.9 88.0,142.9 96.0,143.2 104.0,147.6 112.0,147.3 120.0,146.5 128.0,144.9 136.0,140.9 144.0,144.4 152.0,143.5 160.0,145.8 168.0,148.4 176.0,145.1 184.0,144.5 192.0,144.3 200.0,143.9 208.0,142.9 216.0,143.2 224.0,147.6 232.0,147.3 240.0,146.5 248.0,144.9 256.0,140.9 264.0,144.4 272.0,143.5 280.0,145.8 288.0,148.4 296.0,145.1 304.0,144.5 312.0,144.3 320.0,143.9 328.0,142.9 336.0,143.2 344.0,147.6 352.0,147.3 360.0,146.5 368.0,144.9 376.0,140.9 384.0,144.4 392.0,143.5 400.0,145.8 408.0,148.4 416.0,145.1 424.0,144.5 432.0,144.3 440.0,143.9 448.0,142.9 456.0,143.2 464.0,147.6 472.0,147.3 480.0,146.5 488.0,144.9 496.0,140.9 504.0,144.4 512.0,143.5 520.0,145.8 528.0,148.4 536.0,145.1 544.0,144.5 552.0,144.3 560.0,143.9 568.0,142.9 576.0,143.2 584.0,147.6 592.0,147.3 600.0,146.5 608.0,144.9 616.0,140.9 624.0,144.4 632.0,143.5 640.0,145.8 648.0,148.4 656.0,145.1 664.0,144.5 672.0,144.3 680.0,143.9 688.0,142.9 696.0,143.2 704.0,147.6 712.0,147.3 720.0,146.5 728.0,144.9 736.0,140.9 744.0,144.4 752.0,143.5 760.0,145.8 768.0,148.4 776.0,145.1 784.0,144.5 792.0,144.3 800.0,143.9 808.0,142.9 816.0,143.2 824.0,147.6 832.0,147.3 840.0,146.5 848.0,144.9 856.0,140.9 864.0,144.4 872.0,143.5 880.0,145.8 888.0,148.4 896.0,145.1 904.0,144.5 912.0,144.3 920.0,143.9 928.0,142.9 936.0,143.2 944.0,147.6 952.0,147.3 960.0,146.5 968.0,144.9 976.0,140.9 984.0,144.4 992.0,143.5 1000.0,145.8 1008.0,148.4 1016.0,145.1 1024.0,144.5 1032.0,144.3 1040.0,143.9 1048.0,142.9 1056.0,143.2 1064.0,147.6 1072.0,147.3 1080.0,146.5 1088.0,144.9 1096.0,140.9 1104.0,144.4 1112.0,143.5 1120.0,145.8 1128.0,148.4 1136.0,145.1 1144.0,144.5 1152.0,144.3 1160.0,143.9 1168.0,142.9 1176.0,143.2 1184.0,147.6 1192.0,147.3 1200.0,146.5 1208.0,144.9 1216.0,140.9 1224.0,144.4 1232.0,143.5 1240.0,145.8 1248.0,148.4 1256.0,145.1 1264.0,144.5 1272.0,144.3 1280.0,143.9 1288.0,142.9 1296.0,143.2 1304.0,147.6 1312.0,147.3 1320.0,146.5 1328.0,144.9" fill="none" stroke="#bb7df0" stroke-width="1.55" stroke-linecap="round" stroke-linejoin="round"/></g>
<g class="layer wave-scroll" opacity="0.92"><polyline points="0.0,116.3 8.0,107.8 16.0,82.6 24.0,111.1 32.0,134.7 40.0,101.0 48.0,46.1 56.0,99.1 64.0,122.1 72.0,137.9 80.0,60.2 88.0,87.8 96.0,78.6 104.0,109.7 112.0,120.7 120.0,116.3 128.0,107.8 136.0,82.6 144.0,111.1 152.0,134.7 160.0,101.0 168.0,46.1 176.0,99.1 184.0,122.1 192.0,137.9 200.0,60.2 208.0,87.8 216.0,78.6 224.0,109.7 232.0,120.7 240.0,116.3 248.0,107.8 256.0,82.6 264.0,111.1 272.0,134.7 280.0,101.0 288.0,46.1 296.0,99.1 304.0,122.1 312.0,137.9 320.0,60.2 328.0,87.8 336.0,78.6 344.0,109.7 352.0,120.7 360.0,116.3 368.0,107.8 376.0,82.6 384.0,111.1 392.0,134.7 400.0,101.0 408.0,46.1 416.0,99.1 424.0,122.1 432.0,137.9 440.0,60.2 448.0,87.8 456.0,78.6 464.0,109.7 472.0,120.7 480.0,116.3 488.0,107.8 496.0,82.6 504.0,111.1 512.0,134.7 520.0,101.0 528.0,46.1 536.0,99.1 544.0,122.1 552.0,137.9 560.0,60.2 568.0,87.8 576.0,78.6 584.0,109.7 592.0,120.7 600.0,116.3 608.0,107.8 616.0,82.6 624.0,111.1 632.0,134.7 640.0,101.0 648.0,46.1 656.0,99.1 664.0,122.1 672.0,137.9 680.0,60.2 688.0,87.8 696.0,78.6 704.0,109.7 712.0,120.7 720.0,116.3 728.0,107.8 736.0,82.6 744.0,111.1 752.0,134.7 760.0,101.0 768.0,46.1 776.0,99.1 784.0,122.1 792.0,137.9 800.0,60.2 808.0,87.8 816.0,78.6 824.0,109.7 832.0,120.7 840.0,116.3 848.0,107.8 856.0,82.6 864.0,111.1 872.0,134.7 880.0,101.0 888.0,46.1 896.0,99.1 904.0,122.1 912.0,137.9 920.0,60.2 928.0,87.8 936.0,78.6 944.0,109.7 952.0,120.7 960.0,116.3 968.0,107.8 976.0,82.6 984.0,111.1 992.0,134.7 1000.0,101.0 1008.0,46.1 1016.0,99.1 1024.0,122.1 1032.0,137.9 1040.0,60.2 1048.0,87.8 1056.0,78.6 1064.0,109.7 1072.0,120.7 1080.0,116.3 1088.0,107.8 1096.0,82.6 1104.0,111.1 1112.0,134.7 1120.0,101.0 1128.0,46.1 1136.0,99.1 1144.0,122.1 1152.0,137.9 1160.0,60.2 1168.0,87.8 1176.0,78.6 1184.0,109.7 1192.0,120.7 1200.0,116.3 1208.0,107.8 1216.0,82.6 1224.0,111.1 1232.0,134.7 1240.0,101.0 1248.0,46.1 1256.0,99.1 1264.0,122.1 1272.0,137.9 1280.0,60.2 1288.0,87.8 1296.0,78.6 1304.0,109.7 1312.0,120.7 1320.0,116.3 1328.0,107.8" fill="none" stroke="#86efac" stroke-width="1.55" stroke-linecap="round" stroke-linejoin="round"/></g>
  <rect width="1200" height="280" fill="url(#scanlines)"/>
  <g class="crt-fuzz"><rect x="1196" y="0" width="1" height="35" fill="url(#mxDropGrad)" opacity="0.23" style="animation:mx-drop 8.2s 0.00s linear infinite"/>
    <rect x="46" y="0" width="1" height="22" fill="url(#mxDropGrad2)" opacity="0.3" style="animation:mx-drop 11.2s 0.51s linear infinite"/>
    <rect x="117" y="0" width="1" height="42" fill="url(#mxDropGrad)" opacity="0.31" style="animation:mx-drop 6.9s 0.63s linear infinite"/>
    <rect x="169" y="0" width="1" height="7" fill="url(#mxDropGrad)" opacity="0.21" style="animation:mx-drop 14.2s 1.93s linear infinite"/>
    <rect x="223" y="0" width="1" height="45" fill="url(#mxDropGrad2)" opacity="0.23" style="animation:mx-drop 9.9s 1.80s linear infinite"/>
    <rect x="275" y="0" width="1" height="25" fill="url(#mxDropGrad)" opacity="0.22" style="animation:mx-drop 11.9s 2.71s linear infinite"/>
    <rect x="335" y="0" width="1" height="34" fill="url(#mxDropGrad)" opacity="0.28" style="animation:mx-drop 7.6s 2.06s linear infinite"/>
    <rect x="380" y="0" width="1" height="36" fill="url(#mxDropGrad2)" opacity="0.35" style="animation:mx-drop 13.9s 4.41s linear infinite"/>
    <rect x="450" y="0" width="1" height="20" fill="url(#mxDropGrad)" opacity="0.31" style="animation:mx-drop 10.8s 3.93s linear infinite"/>
    <rect x="500" y="0" width="1" height="25" fill="url(#mxDropGrad)" opacity="0.34" style="animation:mx-drop 11.3s 4.62s linear infinite"/>
    <rect x="560" y="0" width="1" height="48" fill="url(#mxDropGrad2)" opacity="0.26" style="animation:mx-drop 8.2s 3.73s linear infinite"/>
    <rect x="595" y="0" width="1" height="16" fill="url(#mxDropGrad)" opacity="0.35" style="animation:mx-drop 11.3s 5.64s linear infinite"/>
    <rect x="665" y="0" width="1" height="38" fill="url(#mxDropGrad)" opacity="0.31" style="animation:mx-drop 7.1s 3.86s linear infinite"/>
    <rect x="720" y="0" width="1" height="10" fill="url(#mxDropGrad2)" opacity="0.3" style="animation:mx-drop 13.7s 8.07s linear infinite"/>
    <rect x="782" y="0" width="1" height="52" fill="url(#mxDropGrad)" opacity="0.37" style="animation:mx-drop 9.9s 6.27s linear infinite"/>
    <rect x="829" y="0" width="1" height="27" fill="url(#mxDropGrad)" opacity="0.29" style="animation:mx-drop 11.8s 8.06s linear infinite"/>
    <rect x="891" y="0" width="1" height="14" fill="url(#mxDropGrad2)" opacity="0.27" style="animation:mx-drop 8.1s 5.87s linear infinite"/>
    <rect x="924" y="0" width="1" height="31" fill="url(#mxDropGrad)" opacity="0.21" style="animation:mx-drop 14.3s 11.05s linear infinite"/>
    <rect x="989" y="0" width="1" height="27" fill="url(#mxDropGrad)" opacity="0.22" style="animation:mx-drop 10.9s 8.91s linear infinite"/>
    <rect x="1049" y="0" width="1" height="51" fill="url(#mxDropGrad2)" opacity="0.29" style="animation:mx-drop 11.8s 10.16s linear infinite"/>
    <rect x="1108" y="0" width="1" height="40" fill="url(#mxDropGrad)" opacity="0.32" style="animation:mx-drop 8.8s 8.02s linear infinite"/>
    <rect x="1147" y="0" width="1" height="22" fill="url(#mxDropGrad)" opacity="0.2" style="animation:mx-drop 11.2s 10.72s linear infinite"/></g>
  <rect width="1200" height="280" fill="url(#vignette)"/>
  <rect width="1200" height="280" fill="url(#sideFade)"/>
  <g font-family="ui-monospace,SFMono-Regular,Menlo,Consolas,monospace" fill="#4d6e8a" letter-spacing="2.2"><text x="22" y="26" font-size="11">harborglowvintage-oss // highsignal&#x2122;_64</text><text x="22" y="42" font-size="8" fill="#2e5c4a" letter-spacing="3.0" opacity="0.85">BOUTIQUE AI EDGE COMPUTE LAB</text><text x="1178" y="264" font-size="8.5" fill="#2e4a62" letter-spacing="1.8" text-anchor="end">20 CH SPARK  ·  P=120px  ·  25px/s  ·  LOOP_OK</text></g>
  <g transform="translate(1168 22)"><circle r="7" fill="none" stroke="#ffffff" stroke-width="1.2" stroke-opacity="0.55"/><circle r="5" fill="#0a1a0a"/><circle r="3.8" fill="#39ff14"><animate attributeName="fill-opacity" values="1;0.45;1" dur="1.8s" repeatCount="indefinite"/></circle><circle r="3.8" fill="none" stroke="#aaffaa" stroke-width="0.8" stroke-opacity="0.7"><animate attributeName="stroke-opacity" values="0.7;0.15;0.7" dur="1.8s" repeatCount="indefinite"/></circle></g>
  <g filter="url(#bevelGlow)" pointer-events="none">
    <rect x="1.5" y="1.5" width="1197" height="277" rx="6" ry="6"
          fill="none" stroke="#00c8d4" stroke-width="2.2" opacity="0.95"/>
  </g>
  <rect x="0.5" y="0.5" width="1199" height="279" rx="6" ry="6"
        fill="none" stroke="#ffffff" stroke-width="0.6" opacity="0.18"
        pointer-events="none"/>
  <rect x="3.5" y="3.5" width="1193" height="273" rx="4" ry="4"
        fill="none" stroke="#001a1f" stroke-width="0.8" opacity="0.6"
        pointer-events="none"/>
</svg>
